<svg xmlns="http://www.w3.org/2000/svg" xmlns:xlink="http://www.w3.org/1999/xlink" width="1080" zoomAndPan="magnify" viewBox="0 0 810 809.999993" height="1080" preserveAspectRatio="xMidYMid meet" version="1.0"><defs><clipPath id="dbcc0b9673"><path d="M 151.582031 179.1875 L 657.960938 179.1875 L 657.960938 672.6875 L 151.582031 672.6875 Z M 151.582031 179.1875 " clip-rule="nonzero"/></clipPath><clipPath id="24cdf71103"><path d="M 344 167 L 810 167 L 810 810 L 344 810 Z M 344 167 " clip-rule="nonzero"/></clipPath><clipPath id="6bd57fcdbd"><path d="M 658.980469 167.453125 L 1016.953125 525.425781 L 701.933594 840.441406 L 343.960938 482.46875 Z M 658.980469 167.453125 " clip-rule="nonzero"/></clipPath><clipPath id="0e435eab07"><path d="M 1103.175781 -276.746094 L 1862.078125 482.15625 L 1103.175781 1241.058594 L 344.273438 482.15625 Z M 1103.175781 -276.746094 " clip-rule="nonzero"/></clipPath><clipPath id="e44c3ce74c"><path d="M 450 158.722656 L 769 158.722656 L 769 179.722656 L 450 179.722656 Z M 450 158.722656 " clip-rule="nonzero"/></clipPath><clipPath id="c58598ebbc"><path d="M 647.566406 161 L 668.566406 161 L 668.566406 480 L 647.566406 480 Z M 647.566406 161 " clip-rule="nonzero"/></clipPath><clipPath id="d0583cd86a"><path d="M 659.566406 173 L 680.566406 173 L 680.566406 492 L 659.566406 492 Z M 659.566406 173 " clip-rule="nonzero"/></clipPath><clipPath id="43b7bac757"><path d="M 670.167969 172 L 691.167969 172 L 691.167969 491 L 670.167969 491 Z M 670.167969 172 " clip-rule="nonzero"/></clipPath><clipPath id="7054562c4e"><path d="M 682.273438 172 L 703.273438 172 L 703.273438 491 L 682.273438 491 Z M 682.273438 172 " clip-rule="nonzero"/></clipPath><clipPath id="dc77ff7204"><path d="M 692.875 182 L 713.875 182 L 713.875 501 L 692.875 501 Z M 692.875 182 " clip-rule="nonzero"/></clipPath><clipPath id="2de51838ac"><path d="M 704.980469 182 L 725.980469 182 L 725.980469 501 L 704.980469 501 Z M 704.980469 182 " clip-rule="nonzero"/></clipPath><clipPath id="776a05142c"><path d="M 726.9375 173 L 747.9375 173 L 747.9375 492 L 726.9375 492 Z M 726.9375 173 " clip-rule="nonzero"/></clipPath><clipPath id="e5e31f2a18"><path d="M 724.6875 174 L 745.6875 174 L 745.6875 493 L 724.6875 493 Z M 724.6875 174 " clip-rule="nonzero"/></clipPath><clipPath id="93ce7fccc7"><path d="M 745.894531 182 L 766.894531 182 L 766.894531 501 L 745.894531 501 Z M 745.894531 182 " clip-rule="nonzero"/></clipPath><clipPath id="3120e07707"><path d="M 758.644531 161 L 779.644531 161 L 779.644531 480 L 758.644531 480 Z M 758.644531 161 " clip-rule="nonzero"/></clipPath><clipPath id="db87383777"><path d="M 205 674.503906 L 810 674.503906 L 810 715.753906 L 205 715.753906 Z M 205 674.503906 " clip-rule="nonzero"/></clipPath><clipPath id="9684f77664"><path d="M 205 740.933594 L 810 740.933594 L 810 782.183594 L 205 782.183594 Z M 205 740.933594 " clip-rule="nonzero"/></clipPath><clipPath id="ba4c5659e7"><path d="M 217 686.503906 L 810 686.503906 L 810 727.753906 L 217 727.753906 Z M 217 686.503906 " clip-rule="nonzero"/></clipPath><clipPath id="db4b9e41a7"><path d="M 229 698.503906 L 810 698.503906 L 810 739.753906 L 229 739.753906 Z M 229 698.503906 " clip-rule="nonzero"/></clipPath><clipPath id="88f7fdaf4c"><path d="M 241 710.503906 L 810 710.503906 L 810 751.753906 L 241 751.753906 Z M 241 710.503906 " clip-rule="nonzero"/></clipPath><clipPath id="ef6227bffd"><path d="M 205 761.398438 L 810 761.398438 L 810 802.648438 L 205 802.648438 Z M 205 761.398438 " clip-rule="nonzero"/></clipPath><clipPath id="09b75de8fc"><path d="M 217 768.898438 L 810 768.898438 L 810 810 L 217 810 Z M 217 768.898438 " clip-rule="nonzero"/></clipPath><clipPath id="f89f207f78"><path d="M 253 722.503906 L 810 722.503906 L 810 763.753906 L 253 763.753906 Z M 253 722.503906 " clip-rule="nonzero"/></clipPath><clipPath id="b0d0a5e4c7"><path d="M 5 495 L 444 495 L 444 810 L 5 810 Z M 5 495 " clip-rule="nonzero"/></clipPath><clipPath id="4b0e425643"><path d="M 22.367188 482.796875 L 455.539062 934.03125 L 425.78125 962.597656 L -7.390625 511.363281 Z M 22.367188 482.796875 " clip-rule="nonzero"/></clipPath><clipPath id="eef306ae49"><path d="M 22.367188 482.796875 L 455.539062 934.03125 L 425.78125 962.597656 L -7.390625 511.363281 Z M 22.367188 482.796875 " clip-rule="nonzero"/></clipPath><clipPath id="1da83335e4"><path d="M 26 460 L 465 460 L 465 810 L 26 810 Z M 26 460 " clip-rule="nonzero"/></clipPath><clipPath id="9eae494479"><path d="M 43.367188 447.546875 L 476.539062 898.78125 L 446.78125 927.347656 L 13.609375 476.113281 Z M 43.367188 447.546875 " clip-rule="nonzero"/></clipPath><clipPath id="836f355f06"><path d="M 43.367188 447.546875 L 476.539062 898.78125 L 446.78125 927.347656 L 13.609375 476.113281 Z M 43.367188 447.546875 " clip-rule="nonzero"/></clipPath><clipPath id="9608dca7ea"><path d="M 262.511719 294.671875 L 572.261719 294.671875 L 572.261719 674.171875 L 262.511719 674.171875 Z M 262.511719 294.671875 " clip-rule="nonzero"/></clipPath><clipPath id="ca1bd3f858"><path d="M 29 438 L 468 438 L 468 810 L 29 810 Z M 29 438 " clip-rule="nonzero"/></clipPath><clipPath id="27b6a25dcf"><path d="M 46.367188 426.097656 L 479.539062 877.332031 L 449.78125 905.898438 L 16.609375 454.664062 Z M 46.367188 426.097656 " clip-rule="nonzero"/></clipPath><clipPath id="5a2212e36d"><path d="M 46.367188 426.097656 L 479.539062 877.332031 L 449.78125 905.898438 L 16.609375 454.664062 Z M 46.367188 426.097656 " clip-rule="nonzero"/></clipPath></defs><g clip-path="url(#dbcc0b9673)"><path fill="#11a2e1" d="M 1177.582031 179.214844 L 1040.613281 316.183594 L 288.554688 316.183594 L 288.554688 1068.242188 L 151.585938 1205.210938 L 151.585938 179.210938 L 1177.585938 179.210938 Z M 1177.582031 179.214844 " fill-opacity="1" fill-rule="evenodd"/></g><g clip-path="url(#24cdf71103)"><g clip-path="url(#6bd57fcdbd)"><g clip-path="url(#0e435eab07)"><path fill="#254a7b" d="M 1103.195312 -276.722656 L 1103.195312 -74.097656 L 546.921875 482.175781 L 1103.195312 1038.453125 L 1103.195312 1241.074219 L 344.292969 482.171875 L 1103.195312 -276.730469 Z M 1103.195312 -276.722656 " fill-opacity="1" fill-rule="evenodd"/></g></g></g><g clip-path="url(#e44c3ce74c)"><path fill="#feffff" d="M 758.378906 158.722656 L 461.589844 158.722656 C 455.734375 158.722656 450.988281 163.425781 450.988281 169.222656 C 450.988281 175.023438 455.734375 179.722656 461.589844 179.722656 L 758.378906 179.722656 C 764.230469 179.722656 768.976562 175.023438 768.976562 169.222656 C 768.976562 163.425781 764.230469 158.722656 758.378906 158.722656 Z M 758.378906 158.722656 " fill-opacity="1" fill-rule="nonzero"/></g><g clip-path="url(#c58598ebbc)"><path fill="#feffff" d="M 668.566406 469.113281 L 668.566406 172.324219 C 668.566406 166.472656 663.863281 161.726562 658.066406 161.726562 C 652.265625 161.726562 647.566406 166.472656 647.566406 172.324219 L 647.566406 469.113281 C 647.566406 474.96875 652.265625 479.714844 658.066406 479.714844 C 663.863281 479.714844 668.566406 474.96875 668.566406 469.113281 Z M 668.566406 469.113281 " fill-opacity="1" fill-rule="nonzero"/></g><g clip-path="url(#d0583cd86a)"><path fill="#feffff" d="M 680.566406 481.113281 L 680.566406 184.324219 C 680.566406 178.472656 675.863281 173.726562 670.066406 173.726562 C 664.265625 173.726562 659.566406 178.472656 659.566406 184.324219 L 659.566406 481.113281 C 659.566406 486.96875 664.265625 491.714844 670.066406 491.714844 C 675.863281 491.714844 680.566406 486.96875 680.566406 481.113281 Z M 680.566406 481.113281 " fill-opacity="1" fill-rule="nonzero"/></g><g clip-path="url(#43b7bac757)"><path fill="#feffff" d="M 691.167969 479.71875 L 691.167969 182.929688 C 691.167969 177.074219 686.46875 172.328125 680.667969 172.328125 C 674.871094 172.328125 670.167969 177.074219 670.167969 182.929688 L 670.167969 479.71875 C 670.167969 485.570312 674.871094 490.316406 680.667969 490.316406 C 686.46875 490.316406 691.167969 485.570312 691.167969 479.71875 Z M 691.167969 479.71875 " fill-opacity="1" fill-rule="nonzero"/></g><g clip-path="url(#7054562c4e)"><path fill="#feffff" d="M 703.273438 479.71875 L 703.273438 182.929688 C 703.273438 177.074219 698.570312 172.328125 692.773438 172.328125 C 686.972656 172.328125 682.273438 177.074219 682.273438 182.929688 L 682.273438 479.71875 C 682.273438 485.570312 686.972656 490.316406 692.773438 490.316406 C 698.570312 490.316406 703.273438 485.570312 703.273438 479.71875 Z M 703.273438 479.71875 " fill-opacity="1" fill-rule="nonzero"/></g><g clip-path="url(#dc77ff7204)"><path fill="#feffff" d="M 713.875 490.320312 L 713.875 193.53125 C 713.875 187.679688 709.175781 182.933594 703.375 182.933594 C 697.578125 182.933594 692.875 187.679688 692.875 193.53125 L 692.875 490.320312 C 692.875 496.175781 697.578125 500.921875 703.375 500.921875 C 709.175781 500.921875 713.875 496.175781 713.875 490.320312 Z M 713.875 490.320312 " fill-opacity="1" fill-rule="nonzero"/></g><g clip-path="url(#2de51838ac)"><path fill="#feffff" d="M 725.980469 490.320312 L 725.980469 193.53125 C 725.980469 187.679688 721.277344 182.933594 715.480469 182.933594 C 709.679688 182.933594 704.980469 187.679688 704.980469 193.53125 L 704.980469 490.320312 C 704.980469 496.175781 709.679688 500.921875 715.480469 500.921875 C 721.277344 500.921875 725.980469 496.175781 725.980469 490.320312 Z M 725.980469 490.320312 " fill-opacity="1" fill-rule="nonzero"/></g><g clip-path="url(#776a05142c)"><path fill="#feffff" d="M 747.9375 480.46875 L 747.9375 183.679688 C 747.9375 177.824219 743.234375 173.078125 737.4375 173.078125 C 731.636719 173.078125 726.9375 177.824219 726.9375 183.679688 L 726.9375 480.46875 C 726.9375 486.320312 731.636719 491.066406 737.4375 491.066406 C 743.234375 491.066406 747.9375 486.320312 747.9375 480.46875 Z M 747.9375 480.46875 " fill-opacity="1" fill-rule="nonzero"/></g><g clip-path="url(#e5e31f2a18)"><path fill="#feffff" d="M 745.6875 482.347656 L 745.6875 185.558594 C 745.6875 179.703125 740.984375 174.957031 735.1875 174.957031 C 729.386719 174.957031 724.6875 179.703125 724.6875 185.558594 L 724.6875 482.347656 C 724.6875 488.199219 729.386719 492.945312 735.1875 492.945312 C 740.984375 492.945312 745.6875 488.199219 745.6875 482.347656 Z M 745.6875 482.347656 " fill-opacity="1" fill-rule="nonzero"/></g><g clip-path="url(#93ce7fccc7)"><path fill="#feffff" d="M 766.894531 490.320312 L 766.894531 193.53125 C 766.894531 187.679688 762.191406 182.933594 756.394531 182.933594 C 750.597656 182.933594 745.894531 187.679688 745.894531 193.53125 L 745.894531 490.320312 C 745.894531 496.175781 750.597656 500.921875 756.394531 500.921875 C 762.191406 500.921875 766.894531 496.175781 766.894531 490.320312 Z M 766.894531 490.320312 " fill-opacity="1" fill-rule="nonzero"/></g><g clip-path="url(#3120e07707)"><path fill="#feffff" d="M 779.644531 469.113281 L 779.644531 172.324219 C 779.644531 166.472656 774.941406 161.726562 769.144531 161.726562 C 763.347656 161.726562 758.644531 166.472656 758.644531 172.324219 L 758.644531 469.113281 C 758.644531 474.96875 763.347656 479.714844 769.144531 479.714844 C 774.941406 479.714844 779.644531 474.96875 779.644531 469.113281 Z M 779.644531 469.113281 " fill-opacity="1" fill-rule="nonzero"/></g><g clip-path="url(#db87383777)"><path fill="#feffff" d="M 799.425781 674.503906 L 226.316406 674.503906 C 215.011719 674.503906 205.847656 683.742188 205.847656 695.128906 C 205.847656 706.519531 215.011719 715.753906 226.316406 715.753906 L 799.425781 715.753906 C 810.730469 715.753906 819.894531 706.519531 819.894531 695.128906 C 819.894531 683.742188 810.730469 674.503906 799.425781 674.503906 Z M 799.425781 674.503906 " fill-opacity="1" fill-rule="nonzero"/></g><g clip-path="url(#9684f77664)"><path fill="#feffff" d="M 799.425781 740.933594 L 226.316406 740.933594 C 215.011719 740.933594 205.847656 750.167969 205.847656 761.558594 C 205.847656 772.949219 215.011719 782.183594 226.316406 782.183594 L 799.425781 782.183594 C 810.730469 782.183594 819.894531 772.949219 819.894531 761.558594 C 819.894531 750.167969 810.730469 740.933594 799.425781 740.933594 Z M 799.425781 740.933594 " fill-opacity="1" fill-rule="nonzero"/></g><g clip-path="url(#ba4c5659e7)"><path fill="#feffff" d="M 811.425781 686.503906 L 238.316406 686.503906 C 227.011719 686.503906 217.847656 695.742188 217.847656 707.128906 C 217.847656 718.519531 227.011719 727.753906 238.316406 727.753906 L 811.425781 727.753906 C 822.730469 727.753906 831.894531 718.519531 831.894531 707.128906 C 831.894531 695.742188 822.730469 686.503906 811.425781 686.503906 Z M 811.425781 686.503906 " fill-opacity="1" fill-rule="nonzero"/></g><g clip-path="url(#db4b9e41a7)"><path fill="#feffff" d="M 823.425781 698.503906 L 250.316406 698.503906 C 239.011719 698.503906 229.847656 707.742188 229.847656 719.128906 C 229.847656 730.519531 239.011719 739.753906 250.316406 739.753906 L 823.425781 739.753906 C 834.730469 739.753906 843.894531 730.519531 843.894531 719.128906 C 843.894531 707.742188 834.730469 698.503906 823.425781 698.503906 Z M 823.425781 698.503906 " fill-opacity="1" fill-rule="nonzero"/></g><g clip-path="url(#88f7fdaf4c)"><path fill="#feffff" d="M 835.425781 710.503906 L 262.316406 710.503906 C 251.011719 710.503906 241.847656 719.742188 241.847656 731.128906 C 241.847656 742.519531 251.011719 751.753906 262.316406 751.753906 L 835.425781 751.753906 C 846.730469 751.753906 855.894531 742.519531 855.894531 731.128906 C 855.894531 719.742188 846.730469 710.503906 835.425781 710.503906 Z M 835.425781 710.503906 " fill-opacity="1" fill-rule="nonzero"/></g><g clip-path="url(#ef6227bffd)"><path fill="#feffff" d="M 799.425781 761.398438 L 226.316406 761.398438 C 215.011719 761.398438 205.847656 770.632812 205.847656 782.023438 C 205.847656 793.414062 215.011719 802.648438 226.316406 802.648438 L 799.425781 802.648438 C 810.730469 802.648438 819.894531 793.414062 819.894531 782.023438 C 819.894531 770.632812 810.730469 761.398438 799.425781 761.398438 Z M 799.425781 761.398438 " fill-opacity="1" fill-rule="nonzero"/></g><g clip-path="url(#09b75de8fc)"><path fill="#feffff" d="M 811.425781 768.898438 L 238.316406 768.898438 C 227.011719 768.898438 217.847656 778.132812 217.847656 789.523438 C 217.847656 800.914062 227.011719 810.148438 238.316406 810.148438 L 811.425781 810.148438 C 822.730469 810.148438 831.894531 800.914062 831.894531 789.523438 C 831.894531 778.132812 822.730469 768.898438 811.425781 768.898438 Z M 811.425781 768.898438 " fill-opacity="1" fill-rule="nonzero"/></g><g clip-path="url(#f89f207f78)"><path fill="#feffff" d="M 847.425781 722.503906 L 274.316406 722.503906 C 263.011719 722.503906 253.847656 731.742188 253.847656 743.128906 C 253.847656 754.519531 263.011719 763.753906 274.316406 763.753906 L 847.425781 763.753906 C 858.730469 763.753906 867.894531 754.519531 867.894531 743.128906 C 867.894531 731.742188 858.730469 722.503906 847.425781 722.503906 Z M 847.425781 722.503906 " fill-opacity="1" fill-rule="nonzero"/></g><g clip-path="url(#b0d0a5e4c7)"><g clip-path="url(#4b0e425643)"><g clip-path="url(#eef306ae49)"><path fill="#feffff" d="M 437.398438 915.132812 L 40.507812 501.691406 C 32.679688 493.539062 19.671875 493.320312 11.457031 501.210938 C 3.238281 509.097656 2.921875 522.105469 10.75 530.257812 L 407.640625 943.699219 C 415.46875 951.855469 428.476562 952.070312 436.695312 944.183594 C 444.910156 936.296875 445.226562 923.289062 437.398438 915.132812 Z M 437.398438 915.132812 " fill-opacity="1" fill-rule="nonzero"/></g></g></g><g clip-path="url(#1da83335e4)"><g clip-path="url(#9eae494479)"><g clip-path="url(#836f355f06)"><path fill="#feffff" d="M 458.398438 879.882812 L 61.507812 466.441406 C 53.679688 458.289062 40.671875 458.070312 32.457031 465.960938 C 24.238281 473.847656 23.921875 486.855469 31.75 495.007812 L 428.640625 908.449219 C 436.46875 916.605469 449.476562 916.820312 457.695312 908.933594 C 465.910156 901.046875 466.226562 888.039062 458.398438 879.882812 Z M 458.398438 879.882812 " fill-opacity="1" fill-rule="nonzero"/></g></g></g><g clip-path="url(#9608dca7ea)"><path fill="#254a7b" d="M 262.511719 294.671875 L 262.511719 1255.421875 L 1223.261719 1255.421875 L 1223.261719 294.671875 Z M 1198.726562 1230.886719 L 287.050781 1230.886719 L 287.050781 319.210938 L 1198.707031 319.210938 L 1198.707031 1230.886719 Z M 1198.726562 1230.886719 " fill-opacity="1" fill-rule="nonzero"/></g><g clip-path="url(#ca1bd3f858)"><g clip-path="url(#27b6a25dcf)"><g clip-path="url(#5a2212e36d)"><path fill="#feffff" d="M 461.398438 858.4375 L 64.507812 444.996094 C 56.679688 436.839844 43.671875 436.625 35.457031 444.511719 C 27.238281 452.398438 26.921875 465.40625 34.75 473.5625 L 431.640625 887.003906 C 439.46875 895.15625 452.476562 895.375 460.695312 887.484375 C 468.910156 879.597656 469.226562 866.589844 461.398438 858.4375 Z M 461.398438 858.4375 " fill-opacity="1" fill-rule="nonzero"/></g></g></g></svg>